<svg width="900" height="311" viewBox="0 0 900 311" fill="none" xmlns="http://www.w3.org/2000/svg">
<g clip-path="url(#clip0_2_43)">
<path d="M909 0H9V311H909V0Z" fill="#001220"/>
<path d="M298 0L286.3 10.3667C274.7 20.7333 251.3 41.4667 237.8 62.2C224.3 82.9333 220.7 103.667 219.2 124.4C217.7 145.133 218.3 165.867 224.7 186.6C231 207.333 243 228.067 240 248.8C237 269.533 219 290.267 210 300.633L201 311H9V300.633C9 290.267 9 269.533 9 248.8C9 228.067 9 207.333 9 186.6C9 165.867 9 145.133 9 124.4C9 103.667 9 82.9333 9 62.2C9 41.4667 9 20.7333 9 10.3667V0H298Z" fill="#F1CADD"/>
<path d="M157 0L156.7 10.3667C156.3 20.7333 155.7 41.4667 170 62.2C184.3 82.9333 213.7 103.667 216 124.4C218.3 145.133 193.7 165.867 178.8 186.6C164 207.333 159 228.067 162.7 248.8C166.3 269.533 178.7 290.267 184.8 300.633L191 311H9V300.633C9 290.267 9 269.533 9 248.8C9 228.067 9 207.333 9 186.6C9 165.867 9 145.133 9 124.4C9 103.667 9 82.9333 9 62.2C9 41.4667 9 20.7333 9 10.3667V0H157Z" fill="#F69CB5"/>
<path d="M160 0L154.7 10.3667C149.3 20.7333 138.7 41.4667 135.8 62.2C133 82.9333 138 103.667 145.8 124.4C153.7 145.133 164.3 165.867 156.8 186.6C149.3 207.333 123.7 228.067 113.2 248.8C102.7 269.533 107.3 290.267 109.7 300.633L112 311H9V300.633C9 290.267 9 269.533 9 248.8C9 228.067 9 207.333 9 186.6C9 165.867 9 145.133 9 124.4C9 103.667 9 82.9333 9 62.2C9 41.4667 9 20.7333 9 10.3667V0H160Z" fill="#F36C7D"/>
<path d="M52 0L62.3 10.3667C72.7 20.7333 93.3 41.4667 99.3 62.2C105.3 82.9333 96.7 103.667 90.2 124.4C83.7 145.133 79.3 165.867 81.8 186.6C84.3 207.333 93.7 228.067 93.3 248.8C93 269.533 83 290.267 78 300.633L73 311H9V300.633C9 290.267 9 269.533 9 248.8C9 228.067 9 207.333 9 186.6C9 165.867 9 145.133 9 124.4C9 103.667 9 82.9333 9 62.2C9 41.4667 9 20.7333 9 10.3667V0H52Z" fill="#E33A3A"/>
<path d="M389.068 137V67.1818H403.83V95.9886H433.795V67.1818H448.523V137H433.795V108.159H403.83V137H389.068ZM460.42 137V84.6364H474.943V137H460.42ZM467.716 77.8864C465.557 77.8864 463.705 77.1705 462.159 75.7386C460.636 74.2841 459.875 72.5455 459.875 70.5227C459.875 68.5227 460.636 66.8068 462.159 65.375C463.705 63.9205 465.557 63.1932 467.716 63.1932C469.875 63.1932 471.716 63.9205 473.239 65.375C474.784 66.8068 475.557 68.5227 475.557 70.5227C475.557 72.5455 474.784 74.2841 473.239 75.7386C471.716 77.1705 469.875 77.8864 467.716 77.8864ZM502.361 127.455L501.986 131.205C501.69 134.205 501.122 137.193 500.281 140.17C499.463 143.17 498.599 145.886 497.69 148.318C496.804 150.75 496.088 152.659 495.543 154.045H486.134C486.474 152.705 486.94 150.83 487.531 148.42C488.122 146.034 488.679 143.352 489.202 140.375C489.724 137.398 490.054 134.364 490.19 131.273L490.361 127.455H502.361ZM549.611 67.1818V137H534.849V67.1818H549.611ZM573.653 67.1818V74.5455C573.653 76.6364 573.244 78.7727 572.426 80.9545C571.631 83.1136 570.563 85.1591 569.222 87.0909C567.881 89 566.415 90.625 564.824 91.9659L558.415 88.1818C559.551 86.3864 560.551 84.3977 561.415 82.2159C562.301 80.0341 562.744 77.5 562.744 74.6136V67.1818H573.653ZM581.264 137V84.6364H595.105V93.875H595.719C596.81 90.8068 598.628 88.3864 601.173 86.6136C603.719 84.8409 606.764 83.9545 610.31 83.9545C613.901 83.9545 616.957 84.8523 619.48 86.6477C622.003 88.4205 623.685 90.8295 624.526 93.875H625.071C626.139 90.875 628.071 88.4773 630.866 86.6818C633.685 84.8636 637.014 83.9545 640.855 83.9545C645.741 83.9545 649.707 85.5114 652.753 88.625C655.821 91.7159 657.355 96.1023 657.355 101.784V137H642.866V104.648C642.866 101.739 642.094 99.5568 640.548 98.1023C639.003 96.6477 637.071 95.9205 634.753 95.9205C632.116 95.9205 630.06 96.7614 628.582 98.4432C627.105 100.102 626.366 102.295 626.366 105.023V137H612.287V104.341C612.287 101.773 611.548 99.7273 610.071 98.2045C608.616 96.6818 606.696 95.9205 604.31 95.9205C602.696 95.9205 601.241 96.3295 599.946 97.1477C598.673 97.9432 597.662 99.0682 596.912 100.523C596.162 101.955 595.787 103.636 595.787 105.568V137H581.264ZM707.034 137L687.057 67.1818H703.182L714.739 115.693H715.318L728.068 67.1818H741.875L754.591 115.795H755.205L766.761 67.1818H782.886L762.909 137H748.523L735.227 91.3523H734.682L721.42 137H707.034ZM790.514 137V84.6364H805.037V137H790.514ZM797.81 77.8864C795.651 77.8864 793.798 77.1705 792.253 75.7386C790.73 74.2841 789.969 72.5455 789.969 70.5227C789.969 68.5227 790.73 66.8068 792.253 65.375C793.798 63.9205 795.651 63.1932 797.81 63.1932C799.969 63.1932 801.81 63.9205 803.332 65.375C804.878 66.8068 805.651 68.5227 805.651 70.5227C805.651 72.5455 804.878 74.2841 803.332 75.7386C801.81 77.1705 799.969 77.8864 797.81 77.8864ZM831.193 67.1818V137H816.67V67.1818H831.193ZM851.315 137.886C849.065 137.886 847.134 137.091 845.52 135.5C843.929 133.886 843.134 131.955 843.134 129.705C843.134 127.477 843.929 125.568 845.52 123.977C847.134 122.386 849.065 121.591 851.315 121.591C853.497 121.591 855.406 122.386 857.043 123.977C858.679 125.568 859.497 127.477 859.497 129.705C859.497 131.205 859.111 132.58 858.338 133.83C857.588 135.057 856.599 136.045 855.372 136.795C854.145 137.523 852.793 137.886 851.315 137.886Z" fill="white"/>
<path d="M522.611 197.523L518.179 197.795C518.103 197.417 517.94 197.076 517.69 196.773C517.44 196.462 517.111 196.216 516.702 196.034C516.3 195.845 515.819 195.75 515.259 195.75C514.509 195.75 513.876 195.909 513.361 196.227C512.846 196.538 512.588 196.955 512.588 197.477C512.588 197.894 512.755 198.246 513.088 198.534C513.421 198.822 513.993 199.053 514.804 199.227L517.963 199.864C519.66 200.212 520.925 200.773 521.759 201.545C522.592 202.318 523.009 203.333 523.009 204.591C523.009 205.735 522.671 206.739 521.997 207.602C521.33 208.466 520.414 209.14 519.247 209.625C518.088 210.102 516.751 210.341 515.236 210.341C512.925 210.341 511.084 209.86 509.713 208.898C508.349 207.928 507.55 206.61 507.315 204.943L512.077 204.693C512.221 205.398 512.569 205.936 513.122 206.307C513.675 206.67 514.384 206.852 515.247 206.852C516.096 206.852 516.777 206.689 517.293 206.364C517.815 206.03 518.08 205.602 518.088 205.08C518.08 204.64 517.895 204.28 517.531 204C517.168 203.712 516.607 203.492 515.849 203.341L512.827 202.739C511.122 202.398 509.853 201.807 509.02 200.966C508.194 200.125 507.781 199.053 507.781 197.75C507.781 196.629 508.084 195.663 508.69 194.852C509.304 194.042 510.164 193.417 511.27 192.977C512.384 192.538 513.687 192.318 515.179 192.318C517.384 192.318 519.118 192.784 520.384 193.716C521.656 194.648 522.399 195.917 522.611 197.523ZM533.943 210.341C532.178 210.341 530.652 209.966 529.364 209.216C528.083 208.458 527.095 207.405 526.398 206.057C525.701 204.701 525.352 203.129 525.352 201.341C525.352 199.538 525.701 197.962 526.398 196.614C527.095 195.258 528.083 194.205 529.364 193.455C530.652 192.697 532.178 192.318 533.943 192.318C535.708 192.318 537.231 192.697 538.511 193.455C539.799 194.205 540.792 195.258 541.489 196.614C542.186 197.962 542.534 199.538 542.534 201.341C542.534 203.129 542.186 204.701 541.489 206.057C540.792 207.405 539.799 208.458 538.511 209.216C537.231 209.966 535.708 210.341 533.943 210.341ZM533.966 206.591C534.769 206.591 535.439 206.364 535.977 205.909C536.515 205.447 536.92 204.818 537.193 204.023C537.473 203.227 537.614 202.322 537.614 201.307C537.614 200.292 537.473 199.386 537.193 198.591C536.92 197.795 536.515 197.167 535.977 196.705C535.439 196.242 534.769 196.011 533.966 196.011C533.155 196.011 532.473 196.242 531.92 196.705C531.375 197.167 530.962 197.795 530.682 198.591C530.409 199.386 530.273 200.292 530.273 201.307C530.273 202.322 530.409 203.227 530.682 204.023C530.962 204.818 531.375 205.447 531.92 205.909C532.473 206.364 533.155 206.591 533.966 206.591ZM555.068 192.545V196.182H544.295V192.545H555.068ZM546.761 210V191.284C546.761 190.019 547.008 188.97 547.5 188.136C548 187.303 548.682 186.678 549.545 186.261C550.409 185.845 551.39 185.636 552.489 185.636C553.231 185.636 553.909 185.693 554.523 185.807C555.144 185.92 555.606 186.023 555.909 186.114L555.045 189.75C554.856 189.689 554.621 189.633 554.341 189.58C554.068 189.527 553.788 189.5 553.5 189.5C552.788 189.5 552.292 189.667 552.011 190C551.731 190.326 551.591 190.784 551.591 191.375V210H546.761ZM567.31 192.545V196.182H556.798V192.545H567.31ZM559.185 188.364H564.026V204.636C564.026 205.083 564.094 205.432 564.23 205.682C564.366 205.924 564.556 206.095 564.798 206.193C565.048 206.292 565.336 206.341 565.662 206.341C565.889 206.341 566.116 206.322 566.344 206.284C566.571 206.239 566.745 206.205 566.866 206.182L567.628 209.784C567.385 209.86 567.045 209.947 566.605 210.045C566.166 210.152 565.632 210.216 565.003 210.239C563.836 210.284 562.813 210.129 561.935 209.773C561.063 209.417 560.385 208.864 559.901 208.114C559.416 207.364 559.177 206.417 559.185 205.273V188.364ZM573.906 210L569.156 192.545H574.054L576.759 204.273H576.918L579.736 192.545H584.543L587.406 204.205H587.554L590.213 192.545H595.099L590.361 210H585.236L582.236 199.023H582.02L579.02 210H573.906ZM602.659 210.33C601.545 210.33 600.553 210.136 599.682 209.75C598.811 209.356 598.121 208.777 597.614 208.011C597.114 207.239 596.864 206.277 596.864 205.125C596.864 204.155 597.042 203.341 597.398 202.682C597.754 202.023 598.239 201.492 598.852 201.091C599.466 200.689 600.163 200.386 600.943 200.182C601.731 199.977 602.557 199.833 603.42 199.75C604.436 199.644 605.254 199.545 605.875 199.455C606.496 199.356 606.947 199.212 607.227 199.023C607.508 198.833 607.648 198.553 607.648 198.182V198.114C607.648 197.394 607.42 196.837 606.966 196.443C606.519 196.049 605.883 195.852 605.057 195.852C604.186 195.852 603.492 196.045 602.977 196.432C602.462 196.811 602.121 197.288 601.955 197.864L597.477 197.5C597.705 196.439 598.152 195.523 598.818 194.75C599.485 193.97 600.345 193.371 601.398 192.955C602.458 192.53 603.686 192.318 605.08 192.318C606.049 192.318 606.977 192.432 607.864 192.659C608.758 192.886 609.549 193.239 610.239 193.716C610.936 194.193 611.485 194.807 611.886 195.557C612.288 196.299 612.489 197.189 612.489 198.227V210H607.898V207.58H607.761C607.481 208.125 607.106 208.606 606.636 209.023C606.167 209.432 605.602 209.754 604.943 209.989C604.284 210.216 603.523 210.33 602.659 210.33ZM604.045 206.989C604.758 206.989 605.386 206.848 605.932 206.568C606.477 206.28 606.905 205.894 607.216 205.409C607.527 204.924 607.682 204.375 607.682 203.761V201.909C607.53 202.008 607.322 202.098 607.057 202.182C606.799 202.258 606.508 202.33 606.182 202.398C605.856 202.458 605.53 202.515 605.205 202.568C604.879 202.614 604.583 202.655 604.318 202.693C603.75 202.777 603.254 202.909 602.83 203.091C602.405 203.273 602.076 203.519 601.841 203.83C601.606 204.133 601.489 204.511 601.489 204.966C601.489 205.625 601.727 206.129 602.205 206.477C602.689 206.818 603.303 206.989 604.045 206.989ZM616.244 210V192.545H620.938V195.591H621.119C621.438 194.508 621.972 193.689 622.722 193.136C623.472 192.576 624.335 192.295 625.312 192.295C625.555 192.295 625.816 192.311 626.097 192.341C626.377 192.371 626.623 192.413 626.835 192.466V196.761C626.608 196.693 626.294 196.633 625.892 196.58C625.491 196.527 625.123 196.5 624.79 196.5C624.078 196.5 623.441 196.655 622.881 196.966C622.328 197.269 621.888 197.693 621.562 198.239C621.244 198.784 621.085 199.413 621.085 200.125V210H616.244ZM636.48 210.341C634.685 210.341 633.139 209.977 631.844 209.25C630.556 208.515 629.563 207.477 628.866 206.136C628.17 204.788 627.821 203.193 627.821 201.352C627.821 199.557 628.17 197.981 628.866 196.625C629.563 195.269 630.545 194.212 631.81 193.455C633.082 192.697 634.575 192.318 636.287 192.318C637.438 192.318 638.51 192.504 639.503 192.875C640.503 193.239 641.374 193.788 642.116 194.523C642.866 195.258 643.45 196.182 643.866 197.295C644.283 198.402 644.491 199.697 644.491 201.182V202.511H629.753V199.511H639.935C639.935 198.814 639.783 198.197 639.48 197.659C639.177 197.121 638.757 196.701 638.219 196.398C637.688 196.087 637.071 195.932 636.366 195.932C635.632 195.932 634.98 196.102 634.412 196.443C633.851 196.777 633.412 197.227 633.094 197.795C632.776 198.356 632.613 198.981 632.605 199.67V202.523C632.605 203.386 632.764 204.133 633.082 204.761C633.408 205.39 633.866 205.875 634.457 206.216C635.048 206.557 635.749 206.727 636.56 206.727C637.098 206.727 637.59 206.652 638.037 206.5C638.484 206.348 638.866 206.121 639.185 205.818C639.503 205.515 639.745 205.144 639.912 204.705L644.389 205C644.162 206.076 643.696 207.015 642.991 207.818C642.295 208.614 641.393 209.235 640.287 209.682C639.188 210.121 637.92 210.341 636.48 210.341ZM663.011 210.341C661.216 210.341 659.67 209.977 658.375 209.25C657.087 208.515 656.095 207.477 655.398 206.136C654.701 204.788 654.352 203.193 654.352 201.352C654.352 199.557 654.701 197.981 655.398 196.625C656.095 195.269 657.076 194.212 658.341 193.455C659.614 192.697 661.106 192.318 662.818 192.318C663.97 192.318 665.042 192.504 666.034 192.875C667.034 193.239 667.905 193.788 668.648 194.523C669.398 195.258 669.981 196.182 670.398 197.295C670.814 198.402 671.023 199.697 671.023 201.182V202.511H656.284V199.511H666.466C666.466 198.814 666.314 198.197 666.011 197.659C665.708 197.121 665.288 196.701 664.75 196.398C664.22 196.087 663.602 195.932 662.898 195.932C662.163 195.932 661.511 196.102 660.943 196.443C660.383 196.777 659.943 197.227 659.625 197.795C659.307 198.356 659.144 198.981 659.136 199.67V202.523C659.136 203.386 659.295 204.133 659.614 204.761C659.939 205.39 660.398 205.875 660.989 206.216C661.58 206.557 662.28 206.727 663.091 206.727C663.629 206.727 664.121 206.652 664.568 206.5C665.015 206.348 665.398 206.121 665.716 205.818C666.034 205.515 666.277 205.144 666.443 204.705L670.92 205C670.693 206.076 670.227 207.015 669.523 207.818C668.826 208.614 667.924 209.235 666.818 209.682C665.72 210.121 664.451 210.341 663.011 210.341ZM679.023 199.909V210H674.182V192.545H678.795V195.625H679C679.386 194.61 680.034 193.807 680.943 193.216C681.852 192.617 682.955 192.318 684.25 192.318C685.462 192.318 686.519 192.583 687.42 193.114C688.322 193.644 689.023 194.402 689.523 195.386C690.023 196.364 690.273 197.53 690.273 198.886V210H685.432V199.75C685.439 198.682 685.167 197.848 684.614 197.25C684.061 196.644 683.299 196.341 682.33 196.341C681.678 196.341 681.102 196.481 680.602 196.761C680.11 197.042 679.723 197.451 679.443 197.989C679.17 198.519 679.03 199.159 679.023 199.909ZM701.952 216.909C700.384 216.909 699.039 216.693 697.918 216.261C696.804 215.837 695.918 215.258 695.259 214.523C694.599 213.788 694.171 212.962 693.974 212.045L698.452 211.443C698.588 211.792 698.804 212.117 699.099 212.42C699.395 212.723 699.785 212.966 700.27 213.148C700.762 213.337 701.361 213.432 702.065 213.432C703.118 213.432 703.986 213.174 704.668 212.659C705.357 212.152 705.702 211.299 705.702 210.102V206.909H705.497C705.285 207.394 704.967 207.852 704.543 208.284C704.118 208.716 703.573 209.068 702.906 209.341C702.24 209.614 701.444 209.75 700.52 209.75C699.209 209.75 698.016 209.447 696.94 208.841C695.872 208.227 695.02 207.292 694.384 206.034C693.755 204.769 693.44 203.17 693.44 201.239C693.44 199.261 693.762 197.61 694.406 196.284C695.05 194.958 695.906 193.966 696.974 193.307C698.05 192.648 699.228 192.318 700.509 192.318C701.486 192.318 702.304 192.485 702.963 192.818C703.622 193.144 704.152 193.553 704.554 194.045C704.963 194.53 705.277 195.008 705.497 195.477H705.679V192.545H710.486V210.17C710.486 211.655 710.122 212.898 709.395 213.898C708.668 214.898 707.66 215.648 706.372 216.148C705.092 216.655 703.618 216.909 701.952 216.909ZM702.054 206.114C702.834 206.114 703.493 205.92 704.031 205.534C704.577 205.14 704.993 204.58 705.281 203.852C705.577 203.117 705.724 202.239 705.724 201.216C705.724 200.193 705.58 199.307 705.293 198.557C705.005 197.799 704.588 197.212 704.043 196.795C703.497 196.379 702.834 196.17 702.054 196.17C701.259 196.17 700.588 196.386 700.043 196.818C699.497 197.242 699.084 197.833 698.804 198.591C698.524 199.348 698.384 200.223 698.384 201.216C698.384 202.223 698.524 203.095 698.804 203.83C699.092 204.557 699.505 205.121 700.043 205.523C700.588 205.917 701.259 206.114 702.054 206.114ZM714.338 210V192.545H719.179V210H714.338ZM716.77 190.295C716.05 190.295 715.433 190.057 714.918 189.58C714.41 189.095 714.156 188.515 714.156 187.841C714.156 187.174 714.41 186.602 714.918 186.125C715.433 185.64 716.05 185.398 716.77 185.398C717.49 185.398 718.103 185.64 718.611 186.125C719.126 186.602 719.384 187.174 719.384 187.841C719.384 188.515 719.126 189.095 718.611 189.58C718.103 190.057 717.49 190.295 716.77 190.295ZM727.898 199.909V210H723.057V192.545H727.67V195.625H727.875C728.261 194.61 728.909 193.807 729.818 193.216C730.727 192.617 731.83 192.318 733.125 192.318C734.337 192.318 735.394 192.583 736.295 193.114C737.197 193.644 737.898 194.402 738.398 195.386C738.898 196.364 739.148 197.53 739.148 198.886V210H734.307V199.75C734.314 198.682 734.042 197.848 733.489 197.25C732.936 196.644 732.174 196.341 731.205 196.341C730.553 196.341 729.977 196.481 729.477 196.761C728.985 197.042 728.598 197.451 728.318 197.989C728.045 198.519 727.905 199.159 727.898 199.909ZM750.918 210.341C749.122 210.341 747.577 209.977 746.281 209.25C744.993 208.515 744.001 207.477 743.304 206.136C742.607 204.788 742.259 203.193 742.259 201.352C742.259 199.557 742.607 197.981 743.304 196.625C744.001 195.269 744.982 194.212 746.247 193.455C747.52 192.697 749.012 192.318 750.724 192.318C751.876 192.318 752.948 192.504 753.94 192.875C754.94 193.239 755.812 193.788 756.554 194.523C757.304 195.258 757.887 196.182 758.304 197.295C758.721 198.402 758.929 199.697 758.929 201.182V202.511H744.19V199.511H754.372C754.372 198.814 754.221 198.197 753.918 197.659C753.615 197.121 753.194 196.701 752.656 196.398C752.126 196.087 751.509 195.932 750.804 195.932C750.069 195.932 749.418 196.102 748.849 196.443C748.289 196.777 747.849 197.227 747.531 197.795C747.213 198.356 747.05 198.981 747.043 199.67V202.523C747.043 203.386 747.202 204.133 747.52 204.761C747.846 205.39 748.304 205.875 748.895 206.216C749.486 206.557 750.187 206.727 750.997 206.727C751.535 206.727 752.027 206.652 752.474 206.5C752.921 206.348 753.304 206.121 753.622 205.818C753.94 205.515 754.183 205.144 754.349 204.705L758.827 205C758.599 206.076 758.134 207.015 757.429 207.818C756.732 208.614 755.83 209.235 754.724 209.682C753.626 210.121 752.357 210.341 750.918 210.341ZM770.043 210.341C768.247 210.341 766.702 209.977 765.406 209.25C764.118 208.515 763.126 207.477 762.429 206.136C761.732 204.788 761.384 203.193 761.384 201.352C761.384 199.557 761.732 197.981 762.429 196.625C763.126 195.269 764.107 194.212 765.372 193.455C766.645 192.697 768.137 192.318 769.849 192.318C771.001 192.318 772.073 192.504 773.065 192.875C774.065 193.239 774.937 193.788 775.679 194.523C776.429 195.258 777.012 196.182 777.429 197.295C777.846 198.402 778.054 199.697 778.054 201.182V202.511H763.315V199.511H773.497C773.497 198.814 773.346 198.197 773.043 197.659C772.74 197.121 772.319 196.701 771.781 196.398C771.251 196.087 770.634 195.932 769.929 195.932C769.194 195.932 768.543 196.102 767.974 196.443C767.414 196.777 766.974 197.227 766.656 197.795C766.338 198.356 766.175 198.981 766.168 199.67V202.523C766.168 203.386 766.327 204.133 766.645 204.761C766.971 205.39 767.429 205.875 768.02 206.216C768.611 206.557 769.312 206.727 770.122 206.727C770.66 206.727 771.152 206.652 771.599 206.5C772.046 206.348 772.429 206.121 772.747 205.818C773.065 205.515 773.308 205.144 773.474 204.705L777.952 205C777.724 206.076 777.259 207.015 776.554 207.818C775.857 208.614 774.955 209.235 773.849 209.682C772.751 210.121 771.482 210.341 770.043 210.341ZM781.213 210V192.545H785.906V195.591H786.088C786.406 194.508 786.94 193.689 787.69 193.136C788.44 192.576 789.304 192.295 790.281 192.295C790.524 192.295 790.785 192.311 791.065 192.341C791.346 192.371 791.592 192.413 791.804 192.466V196.761C791.577 196.693 791.262 196.633 790.861 196.58C790.459 196.527 790.092 196.5 789.759 196.5C789.046 196.5 788.41 196.655 787.849 196.966C787.296 197.269 786.857 197.693 786.531 198.239C786.213 198.784 786.054 199.413 786.054 200.125V210H781.213ZM806.69 210.33C805.577 210.33 804.584 210.136 803.713 209.75C802.842 209.356 802.152 208.777 801.645 208.011C801.145 207.239 800.895 206.277 800.895 205.125C800.895 204.155 801.073 203.341 801.429 202.682C801.785 202.023 802.27 201.492 802.884 201.091C803.497 200.689 804.194 200.386 804.974 200.182C805.762 199.977 806.588 199.833 807.452 199.75C808.467 199.644 809.285 199.545 809.906 199.455C810.527 199.356 810.978 199.212 811.259 199.023C811.539 198.833 811.679 198.553 811.679 198.182V198.114C811.679 197.394 811.452 196.837 810.997 196.443C810.55 196.049 809.914 195.852 809.088 195.852C808.217 195.852 807.524 196.045 807.009 196.432C806.493 196.811 806.152 197.288 805.986 197.864L801.509 197.5C801.736 196.439 802.183 195.523 802.849 194.75C803.516 193.97 804.376 193.371 805.429 192.955C806.49 192.53 807.717 192.318 809.111 192.318C810.08 192.318 811.009 192.432 811.895 192.659C812.789 192.886 813.58 193.239 814.27 193.716C814.967 194.193 815.516 194.807 815.918 195.557C816.319 196.299 816.52 197.189 816.52 198.227V210H811.929V207.58H811.793C811.512 208.125 811.137 208.606 810.668 209.023C810.198 209.432 809.634 209.754 808.974 209.989C808.315 210.216 807.554 210.33 806.69 210.33ZM808.077 206.989C808.789 206.989 809.418 206.848 809.963 206.568C810.509 206.28 810.937 205.894 811.247 205.409C811.558 204.924 811.713 204.375 811.713 203.761V201.909C811.562 202.008 811.353 202.098 811.088 202.182C810.83 202.258 810.539 202.33 810.213 202.398C809.887 202.458 809.562 202.515 809.236 202.568C808.91 202.614 808.615 202.655 808.349 202.693C807.781 202.777 807.285 202.909 806.861 203.091C806.437 203.273 806.107 203.519 805.872 203.83C805.637 204.133 805.52 204.511 805.52 204.966C805.52 205.625 805.759 206.129 806.236 206.477C806.721 206.818 807.334 206.989 808.077 206.989ZM825.116 199.909V210H820.276V192.545H824.889V195.625H825.094C825.48 194.61 826.128 193.807 827.037 193.216C827.946 192.617 829.048 192.318 830.344 192.318C831.556 192.318 832.613 192.583 833.514 193.114C834.416 193.644 835.116 194.402 835.616 195.386C836.116 196.364 836.366 197.53 836.366 198.886V210H831.526V199.75C831.533 198.682 831.26 197.848 830.707 197.25C830.154 196.644 829.393 196.341 828.423 196.341C827.772 196.341 827.196 196.481 826.696 196.761C826.204 197.042 825.817 197.451 825.537 197.989C825.264 198.519 825.124 199.159 825.116 199.909ZM846.614 210.284C845.288 210.284 844.087 209.943 843.011 209.261C841.943 208.572 841.095 207.561 840.466 206.227C839.845 204.886 839.534 203.242 839.534 201.295C839.534 199.295 839.856 197.633 840.5 196.307C841.144 194.973 842 193.977 843.068 193.318C844.144 192.652 845.322 192.318 846.602 192.318C847.58 192.318 848.394 192.485 849.045 192.818C849.705 193.144 850.235 193.553 850.636 194.045C851.045 194.53 851.356 195.008 851.568 195.477H851.716V186.727H856.545V210H851.773V207.205H851.568C851.341 207.689 851.019 208.17 850.602 208.648C850.193 209.117 849.659 209.508 849 209.818C848.348 210.129 847.553 210.284 846.614 210.284ZM848.148 206.432C848.928 206.432 849.587 206.22 850.125 205.795C850.67 205.364 851.087 204.761 851.375 203.989C851.67 203.216 851.818 202.311 851.818 201.273C851.818 200.235 851.674 199.333 851.386 198.568C851.098 197.803 850.682 197.212 850.136 196.795C849.591 196.379 848.928 196.17 848.148 196.17C847.352 196.17 846.682 196.386 846.136 196.818C845.591 197.25 845.178 197.848 844.898 198.614C844.617 199.379 844.477 200.265 844.477 201.273C844.477 202.288 844.617 203.186 844.898 203.966C845.186 204.739 845.598 205.345 846.136 205.784C846.682 206.216 847.352 206.432 848.148 206.432ZM603.722 249.33C602.608 249.33 601.616 249.136 600.744 248.75C599.873 248.356 599.184 247.777 598.676 247.011C598.176 246.239 597.926 245.277 597.926 244.125C597.926 243.155 598.104 242.341 598.46 241.682C598.816 241.023 599.301 240.492 599.915 240.091C600.528 239.689 601.225 239.386 602.006 239.182C602.794 238.977 603.619 238.833 604.483 238.75C605.498 238.644 606.316 238.545 606.938 238.455C607.559 238.356 608.009 238.212 608.29 238.023C608.57 237.833 608.71 237.553 608.71 237.182V237.114C608.71 236.394 608.483 235.837 608.028 235.443C607.581 235.049 606.945 234.852 606.119 234.852C605.248 234.852 604.555 235.045 604.04 235.432C603.525 235.811 603.184 236.288 603.017 236.864L598.54 236.5C598.767 235.439 599.214 234.523 599.881 233.75C600.547 232.97 601.407 232.371 602.46 231.955C603.521 231.53 604.748 231.318 606.142 231.318C607.112 231.318 608.04 231.432 608.926 231.659C609.82 231.886 610.612 232.239 611.301 232.716C611.998 233.193 612.547 233.807 612.949 234.557C613.35 235.299 613.551 236.189 613.551 237.227V249H608.96V246.58H608.824C608.544 247.125 608.169 247.606 607.699 248.023C607.229 248.432 606.665 248.754 606.006 248.989C605.347 249.216 604.585 249.33 603.722 249.33ZM605.108 245.989C605.82 245.989 606.449 245.848 606.994 245.568C607.54 245.28 607.968 244.894 608.278 244.409C608.589 243.924 608.744 243.375 608.744 242.761V240.909C608.593 241.008 608.384 241.098 608.119 241.182C607.862 241.258 607.57 241.33 607.244 241.398C606.919 241.458 606.593 241.515 606.267 241.568C605.941 241.614 605.646 241.655 605.381 241.693C604.813 241.777 604.316 241.909 603.892 242.091C603.468 242.273 603.138 242.519 602.903 242.83C602.669 243.133 602.551 243.511 602.551 243.966C602.551 244.625 602.79 245.129 603.267 245.477C603.752 245.818 604.366 245.989 605.108 245.989ZM629.554 225.727V249H624.713V225.727H629.554ZM633.432 249V231.545H638.273V249H633.432ZM635.864 229.295C635.144 229.295 634.527 229.057 634.011 228.58C633.504 228.095 633.25 227.515 633.25 226.841C633.25 226.174 633.504 225.602 634.011 225.125C634.527 224.64 635.144 224.398 635.864 224.398C636.583 224.398 637.197 224.64 637.705 225.125C638.22 225.602 638.477 226.174 638.477 226.841C638.477 227.515 638.22 228.095 637.705 228.58C637.197 229.057 636.583 229.295 635.864 229.295ZM651.537 231.545V235.182H640.764V231.545H651.537ZM643.23 249V230.284C643.23 229.019 643.476 227.97 643.969 227.136C644.469 226.303 645.151 225.678 646.014 225.261C646.878 224.845 647.859 224.636 648.957 224.636C649.7 224.636 650.378 224.693 650.991 224.807C651.613 224.92 652.075 225.023 652.378 225.114L651.514 228.75C651.325 228.689 651.09 228.633 650.81 228.58C650.537 228.527 650.257 228.5 649.969 228.5C649.257 228.5 648.76 228.667 648.48 229C648.2 229.326 648.06 229.784 648.06 230.375V249H643.23ZM661.824 249.341C660.028 249.341 658.483 248.977 657.188 248.25C655.9 247.515 654.907 246.477 654.21 245.136C653.513 243.788 653.165 242.193 653.165 240.352C653.165 238.557 653.513 236.981 654.21 235.625C654.907 234.269 655.888 233.212 657.153 232.455C658.426 231.697 659.919 231.318 661.631 231.318C662.782 231.318 663.854 231.504 664.847 231.875C665.847 232.239 666.718 232.788 667.46 233.523C668.21 234.258 668.794 235.182 669.21 236.295C669.627 237.402 669.835 238.697 669.835 240.182V241.511H655.097V238.511H665.278C665.278 237.814 665.127 237.197 664.824 236.659C664.521 236.121 664.1 235.701 663.562 235.398C663.032 235.087 662.415 234.932 661.71 234.932C660.975 234.932 660.324 235.102 659.756 235.443C659.195 235.777 658.756 236.227 658.438 236.795C658.119 237.356 657.956 237.981 657.949 238.67V241.523C657.949 242.386 658.108 243.133 658.426 243.761C658.752 244.39 659.21 244.875 659.801 245.216C660.392 245.557 661.093 245.727 661.903 245.727C662.441 245.727 662.934 245.652 663.381 245.5C663.828 245.348 664.21 245.121 664.528 244.818C664.847 244.515 665.089 244.144 665.256 243.705L669.733 244C669.506 245.076 669.04 246.015 668.335 246.818C667.638 247.614 666.737 248.235 665.631 248.682C664.532 249.121 663.263 249.341 661.824 249.341ZM677.835 225.727V249H672.994V225.727H677.835ZM689.599 249.341C687.834 249.341 686.308 248.966 685.02 248.216C683.74 247.458 682.751 246.405 682.054 245.057C681.357 243.701 681.009 242.129 681.009 240.341C681.009 238.538 681.357 236.962 682.054 235.614C682.751 234.258 683.74 233.205 685.02 232.455C686.308 231.697 687.834 231.318 689.599 231.318C691.365 231.318 692.887 231.697 694.168 232.455C695.455 233.205 696.448 234.258 697.145 235.614C697.842 236.962 698.19 238.538 698.19 240.341C698.19 242.129 697.842 243.701 697.145 245.057C696.448 246.405 695.455 247.458 694.168 248.216C692.887 248.966 691.365 249.341 689.599 249.341ZM689.622 245.591C690.425 245.591 691.096 245.364 691.634 244.909C692.171 244.447 692.577 243.818 692.849 243.023C693.13 242.227 693.27 241.322 693.27 240.307C693.27 239.292 693.13 238.386 692.849 237.591C692.577 236.795 692.171 236.167 691.634 235.705C691.096 235.242 690.425 235.011 689.622 235.011C688.812 235.011 688.13 235.242 687.577 235.705C687.031 236.167 686.618 236.795 686.338 237.591C686.065 238.386 685.929 239.292 685.929 240.307C685.929 241.322 686.065 242.227 686.338 243.023C686.618 243.818 687.031 244.447 687.577 244.909C688.13 245.364 688.812 245.591 689.622 245.591ZM706.179 238.909V249H701.338V231.545H705.952V234.625H706.156C706.543 233.61 707.19 232.807 708.099 232.216C709.009 231.617 710.111 231.318 711.406 231.318C712.618 231.318 713.675 231.583 714.577 232.114C715.478 232.644 716.179 233.402 716.679 234.386C717.179 235.364 717.429 236.53 717.429 237.886V249H712.588V238.75C712.596 237.682 712.323 236.848 711.77 236.25C711.217 235.644 710.455 235.341 709.486 235.341C708.834 235.341 708.259 235.481 707.759 235.761C707.266 236.042 706.88 236.451 706.599 236.989C706.327 237.519 706.187 238.159 706.179 238.909ZM729.108 255.909C727.54 255.909 726.195 255.693 725.074 255.261C723.96 254.837 723.074 254.258 722.415 253.523C721.756 252.788 721.328 251.962 721.131 251.045L725.608 250.443C725.744 250.792 725.96 251.117 726.256 251.42C726.551 251.723 726.941 251.966 727.426 252.148C727.919 252.337 728.517 252.432 729.222 252.432C730.275 252.432 731.142 252.174 731.824 251.659C732.513 251.152 732.858 250.299 732.858 249.102V245.909H732.653C732.441 246.394 732.123 246.852 731.699 247.284C731.275 247.716 730.729 248.068 730.062 248.341C729.396 248.614 728.6 248.75 727.676 248.75C726.366 248.75 725.172 248.447 724.097 247.841C723.028 247.227 722.176 246.292 721.54 245.034C720.911 243.769 720.597 242.17 720.597 240.239C720.597 238.261 720.919 236.61 721.562 235.284C722.206 233.958 723.063 232.966 724.131 232.307C725.206 231.648 726.384 231.318 727.665 231.318C728.642 231.318 729.46 231.485 730.119 231.818C730.778 232.144 731.309 232.553 731.71 233.045C732.119 233.53 732.434 234.008 732.653 234.477H732.835V231.545H737.642V249.17C737.642 250.655 737.278 251.898 736.551 252.898C735.824 253.898 734.816 254.648 733.528 255.148C732.248 255.655 730.775 255.909 729.108 255.909ZM729.21 245.114C729.991 245.114 730.65 244.92 731.188 244.534C731.733 244.14 732.15 243.58 732.438 242.852C732.733 242.117 732.881 241.239 732.881 240.216C732.881 239.193 732.737 238.307 732.449 237.557C732.161 236.799 731.744 236.212 731.199 235.795C730.653 235.379 729.991 235.17 729.21 235.17C728.415 235.17 727.744 235.386 727.199 235.818C726.653 236.242 726.241 236.833 725.96 237.591C725.68 238.348 725.54 239.223 725.54 240.216C725.54 241.223 725.68 242.095 725.96 242.83C726.248 243.557 726.661 244.121 727.199 244.523C727.744 244.917 728.415 245.114 729.21 245.114ZM753.741 225.727V249H748.901V225.727H753.741ZM765.574 249.341C763.778 249.341 762.233 248.977 760.938 248.25C759.65 247.515 758.657 246.477 757.96 245.136C757.263 243.788 756.915 242.193 756.915 240.352C756.915 238.557 757.263 236.981 757.96 235.625C758.657 234.269 759.638 233.212 760.903 232.455C762.176 231.697 763.669 231.318 765.381 231.318C766.532 231.318 767.604 231.504 768.597 231.875C769.597 232.239 770.468 232.788 771.21 233.523C771.96 234.258 772.544 235.182 772.96 236.295C773.377 237.402 773.585 238.697 773.585 240.182V241.511H758.847V238.511H769.028C769.028 237.814 768.877 237.197 768.574 236.659C768.271 236.121 767.85 235.701 767.312 235.398C766.782 235.087 766.165 234.932 765.46 234.932C764.725 234.932 764.074 235.102 763.506 235.443C762.945 235.777 762.506 236.227 762.188 236.795C761.869 237.356 761.706 237.981 761.699 238.67V241.523C761.699 242.386 761.858 243.133 762.176 243.761C762.502 244.39 762.96 244.875 763.551 245.216C764.142 245.557 764.843 245.727 765.653 245.727C766.191 245.727 766.684 245.652 767.131 245.5C767.578 245.348 767.96 245.121 768.278 244.818C768.597 244.515 768.839 244.144 769.006 243.705L773.483 244C773.256 245.076 772.79 246.015 772.085 246.818C771.388 247.614 770.487 248.235 769.381 248.682C768.282 249.121 767.013 249.341 765.574 249.341ZM781.722 249.33C780.608 249.33 779.616 249.136 778.744 248.75C777.873 248.356 777.184 247.777 776.676 247.011C776.176 246.239 775.926 245.277 775.926 244.125C775.926 243.155 776.104 242.341 776.46 241.682C776.816 241.023 777.301 240.492 777.915 240.091C778.528 239.689 779.225 239.386 780.006 239.182C780.794 238.977 781.619 238.833 782.483 238.75C783.498 238.644 784.316 238.545 784.938 238.455C785.559 238.356 786.009 238.212 786.29 238.023C786.57 237.833 786.71 237.553 786.71 237.182V237.114C786.71 236.394 786.483 235.837 786.028 235.443C785.581 235.049 784.945 234.852 784.119 234.852C783.248 234.852 782.555 235.045 782.04 235.432C781.525 235.811 781.184 236.288 781.017 236.864L776.54 236.5C776.767 235.439 777.214 234.523 777.881 233.75C778.547 232.97 779.407 232.371 780.46 231.955C781.521 231.53 782.748 231.318 784.142 231.318C785.112 231.318 786.04 231.432 786.926 231.659C787.82 231.886 788.612 232.239 789.301 232.716C789.998 233.193 790.547 233.807 790.949 234.557C791.35 235.299 791.551 236.189 791.551 237.227V249H786.96V246.58H786.824C786.544 247.125 786.169 247.606 785.699 248.023C785.229 248.432 784.665 248.754 784.006 248.989C783.347 249.216 782.585 249.33 781.722 249.33ZM783.108 245.989C783.82 245.989 784.449 245.848 784.994 245.568C785.54 245.28 785.968 244.894 786.278 244.409C786.589 243.924 786.744 243.375 786.744 242.761V240.909C786.593 241.008 786.384 241.098 786.119 241.182C785.862 241.258 785.57 241.33 785.244 241.398C784.919 241.458 784.593 241.515 784.267 241.568C783.941 241.614 783.646 241.655 783.381 241.693C782.813 241.777 782.316 241.909 781.892 242.091C781.468 242.273 781.138 242.519 780.903 242.83C780.669 243.133 780.551 243.511 780.551 243.966C780.551 244.625 780.79 245.129 781.267 245.477C781.752 245.818 782.366 245.989 783.108 245.989ZM795.307 249V231.545H800V234.591H800.182C800.5 233.508 801.034 232.689 801.784 232.136C802.534 231.576 803.398 231.295 804.375 231.295C804.617 231.295 804.879 231.311 805.159 231.341C805.439 231.371 805.686 231.413 805.898 231.466V235.761C805.67 235.693 805.356 235.633 804.955 235.58C804.553 235.527 804.186 235.5 803.852 235.5C803.14 235.5 802.504 235.655 801.943 235.966C801.39 236.269 800.951 236.693 800.625 237.239C800.307 237.784 800.148 238.413 800.148 239.125V249H795.307ZM813.241 238.909V249H808.401V231.545H813.014V234.625H813.219C813.605 233.61 814.253 232.807 815.162 232.216C816.071 231.617 817.173 231.318 818.469 231.318C819.681 231.318 820.738 231.583 821.639 232.114C822.541 232.644 823.241 233.402 823.741 234.386C824.241 235.364 824.491 236.53 824.491 237.886V249H819.651V238.75C819.658 237.682 819.385 236.848 818.832 236.25C818.279 235.644 817.518 235.341 816.548 235.341C815.897 235.341 815.321 235.481 814.821 235.761C814.329 236.042 813.942 236.451 813.662 236.989C813.389 237.519 813.249 238.159 813.241 238.909ZM836.261 249.341C834.466 249.341 832.92 248.977 831.625 248.25C830.337 247.515 829.345 246.477 828.648 245.136C827.951 243.788 827.602 242.193 827.602 240.352C827.602 238.557 827.951 236.981 828.648 235.625C829.345 234.269 830.326 233.212 831.591 232.455C832.864 231.697 834.356 231.318 836.068 231.318C837.22 231.318 838.292 231.504 839.284 231.875C840.284 232.239 841.155 232.788 841.898 233.523C842.648 234.258 843.231 235.182 843.648 236.295C844.064 237.402 844.273 238.697 844.273 240.182V241.511H829.534V238.511H839.716C839.716 237.814 839.564 237.197 839.261 236.659C838.958 236.121 838.538 235.701 838 235.398C837.47 235.087 836.852 234.932 836.148 234.932C835.413 234.932 834.761 235.102 834.193 235.443C833.633 235.777 833.193 236.227 832.875 236.795C832.557 237.356 832.394 237.981 832.386 238.67V241.523C832.386 242.386 832.545 243.133 832.864 243.761C833.189 244.39 833.648 244.875 834.239 245.216C834.83 245.557 835.53 245.727 836.341 245.727C836.879 245.727 837.371 245.652 837.818 245.5C838.265 245.348 838.648 245.121 838.966 244.818C839.284 244.515 839.527 244.144 839.693 243.705L844.17 244C843.943 245.076 843.477 246.015 842.773 246.818C842.076 247.614 841.174 248.235 840.068 248.682C838.97 249.121 837.701 249.341 836.261 249.341ZM847.432 249V231.545H852.125V234.591H852.307C852.625 233.508 853.159 232.689 853.909 232.136C854.659 231.576 855.523 231.295 856.5 231.295C856.742 231.295 857.004 231.311 857.284 231.341C857.564 231.371 857.811 231.413 858.023 231.466V235.761C857.795 235.693 857.481 235.633 857.08 235.58C856.678 235.527 856.311 235.5 855.977 235.5C855.265 235.5 854.629 235.655 854.068 235.966C853.515 236.269 853.076 236.693 852.75 237.239C852.432 237.784 852.273 238.413 852.273 239.125V249H847.432Z" fill="white" fill-opacity="0.8"/>
</g>
<defs>
<clipPath id="clip0_2_43">
<rect width="900" height="311" fill="white"/>
</clipPath>
</defs>
</svg>
